<svg version="1" xmlns="http://www.w3.org/2000/svg" width="933.333" height="933.333" viewBox="0 0 700.000000 700.000000"><path d="M156.5 1.1c-19.5 2.1-39.1 7.7-58 16.8C44 44.1 7.3 96.8 1.1 157.9-.4 172.1-.4 526.8 1 541.1c7.3 72.1 56.8 131.5 125.9 151.4 24.3 6.9 14.1 6.6 228.1 6.3l192.5-.3 10.5-2.3c35.7-7.9 65.1-23.6 89.7-48 28-27.8 45.7-64.1 50.3-103.2.8-6.8 1-64 .8-201l-.3-191.5-2.3-10.9C686.1 94.1 660 55.3 620 28.6c-17.5-11.7-41.2-21.3-64-25.8L544.5.5l-190-.1c-104.5-.1-193.6.2-198 .7zm107.7 213.6l.3 66.8 65.9-66.8 65.9-66.7h64.6l64.6.1-100.3 100C370.1 303.1 325 348.3 325 348.6c0 .2 19.7 20.1 43.8 44.2 24 24.1 69.1 69.6 100.1 101l56.3 57.2H399.5l-67.7-67.1-67.8-67.1V551h-90V350.2c0-110.5.3-201.2.7-201.5.3-.4 20.6-.7 45-.7H264l.2 66.7z"/></svg>